<svg width="1100" height="1100" viewBox="0 0 1100 1100" fill="none" xmlns="http://www.w3.org/2000/svg">
<rect width="1100" height="1100" rx="200" fill="white"/>
<path d="M129.568 545.391L129.568 164.082" stroke="black" stroke-width="15" stroke-linecap="round"/>
<path d="M549.5 146.055C749.687 146.055 909.69 332.028 909.69 558.423C909.69 784.818 749.687 970.792 549.5 970.792C349.313 970.792 189.309 784.818 189.309 558.423C189.309 332.028 349.313 146.055 549.5 146.055Z" fill="white" stroke="black" stroke-width="20"/>
<path d="M99 528.321C99 441.968 150.974 364.97 232.58 310.009C314.247 255.007 426.502 221.311 550 221.311C673.498 221.311 785.753 255.007 867.42 310.009C949.026 364.97 1001 441.968 1001 528.321C1001 614.674 949.026 691.672 867.42 746.633C785.753 801.635 673.498 835.331 550 835.331C426.502 835.331 314.247 801.635 232.58 746.633C150.974 691.672 99.0002 614.674 99 528.321Z" fill="white" stroke="black" stroke-width="20"/>
<path d="M549.999 130C769.191 130 946.815 308.371 946.815 528.32C946.815 748.27 769.191 926.642 549.999 926.642C330.807 926.641 153.184 748.27 153.184 528.32C153.184 308.371 330.807 130 549.999 130Z" fill="white" stroke="black" stroke-width="20"/>
<ellipse cx="549.499" cy="543.873" rx="328.116" ry="268.413" fill="black"/>
<path d="M409.021 485.444C377.345 478.399 363.559 450.219 360.626 437.01C357.106 472.235 327.874 483.976 313.697 485.444C346.547 494.837 358.671 522.625 360.626 535.345C366.492 502.469 395.334 488.379 409.021 485.444Z" fill="white"/>
<path d="M469.224 589.693C454.553 586.459 448.168 573.519 446.81 567.454C445.18 583.628 431.64 589.02 425.074 589.693C440.289 594.007 445.904 606.766 446.81 612.607C449.527 597.511 462.885 591.041 469.224 589.693Z" fill="white"/>
<path d="M608.447 330.723C601.079 349.107 630.962 349.185 640.684 350.717C748.75 378.906 798.043 470.646 813.395 514.564C818.307 525.594 825.913 537.033 831.029 536.012C843.31 533.561 842.286 520.692 840.24 514.564C803.399 396.906 691.852 340.936 640.684 327.659C621.036 315.403 611.006 324.595 608.447 330.723Z" fill="white"/>
</svg>
