<svg width="1100" height="1100" viewBox="0 0 1100 1100" fill="none" xmlns="http://www.w3.org/2000/svg">
<rect width="1100" height="1100" rx="200" fill="white"/>
<ellipse cx="545.168" cy="335.74" rx="213.74" ry="213.74" fill="black"/>
<ellipse cx="545.166" cy="335.74" rx="89.633" ry="89.633" fill="white"/>
<path d="M663.756 590.85C573.296 640.492 467.023 611.534 425.194 590.85C373.344 551.136 338.319 571.544 327.288 586.712C285.367 629.736 319.933 672.668 342.456 688.756C515.655 777.01 682.142 725.528 743.736 688.756C784.554 666.692 785.565 626.243 780.968 608.776C748.976 541.482 689.497 568.786 663.756 590.85Z" fill="black" stroke="black"/>
<rect x="547.203" y="644.489" width="120.38" height="349.757" rx="60.19" transform="rotate(44.9739 547.203 644.489)" fill="black"/>
<rect x="463.807" y="733.258" width="120.38" height="349.757" rx="60.19" transform="rotate(-46.4512 463.807 733.258)" fill="black"/>
</svg>
